<?xml version="1.0" standalone="no"?>
<!DOCTYPE svg PUBLIC "-//W3C//DTD SVG 20010904//EN"
 "http://www.w3.org/TR/2001/REC-SVG-20010904/DTD/svg10.dtd">
<svg version="1.0" xmlns="http://www.w3.org/2000/svg"
 width="512.000000pt" height="512.000000pt" viewBox="0 0 512.000000 512.000000"
 preserveAspectRatio="xMidYMid meet">
<metadata>
Created by potrace 1.15, written by Peter Selinger 2001-2017
</metadata>
<g transform="translate(0.000000,512.000000) scale(0.100000,-0.100000)"
fill="#000000" stroke="none">
<path d="M2231 5104 c-1062 -136 -1939 -937 -2175 -1989 -76 -335 -76 -775 -1
-1108 169 -749 662 -1384 1342 -1730 382 -194 730 -277 1163 -277 430 0 784
84 1161 276 482 245 878 641 1123 1123 192 377 276 731 276 1161 0 432 -83
782 -277 1162 -383 755 -1128 1279 -1963 1383 -153 19 -501 18 -649 -1z m738
-124 c950 -169 1705 -848 1955 -1762 68 -249 81 -350 81 -658 0 -308 -13 -409
-81 -658 -226 -824 -882 -1480 -1706 -1706 -249 -68 -350 -81 -658 -81 -308 0
-409 13 -658 81 -824 226 -1480 882 -1706 1706 -68 249 -81 350 -81 658 0 243
3 290 23 403 95 525 323 969 687 1332 363 364 823 601 1327 684 175 29 177 29
448 26 200 -2 268 -7 369 -25z"/>
<path d="M1760 3599 c-229 -22 -446 -125 -618 -293 -134 -130 -221 -274 -279
-463 -25 -83 -27 -100 -27 -283 0 -183 2 -200 27 -283 60 -196 147 -337 290
-473 200 -190 436 -285 712 -286 226 -1 407 53 596 178 68 45 198 165 217 200
9 17 -2 49 -56 175 -37 85 -71 160 -75 167 -16 24 -37 11 -73 -45 -84 -132
-169 -207 -309 -274 -200 -95 -420 -89 -630 19 -95 49 -236 190 -287 287 -62
119 -83 203 -83 335 0 203 61 347 209 496 99 98 176 145 299 183 286 87 613
-28 781 -277 28 -42 118 -234 246 -527 111 -253 217 -489 236 -524 109 -198
254 -315 450 -362 120 -29 332 -23 439 11 236 75 396 231 449 437 21 79 21
250 1 328 -39 147 -137 259 -298 339 -51 25 -173 72 -272 105 -220 72 -262 90
-310 132 -47 41 -65 83 -65 149 0 165 159 267 335 215 48 -14 70 -28 123 -81
35 -35 69 -64 74 -64 15 0 236 119 244 131 11 18 -60 120 -128 184 -113 107
-220 146 -402 146 -293 -1 -501 -151 -556 -402 -16 -74 -8 -259 14 -324 61
-176 214 -284 586 -416 246 -87 288 -111 321 -183 43 -95 16 -211 -70 -297
-66 -66 -137 -96 -244 -105 -136 -12 -252 29 -327 113 -57 65 -93 140 -302
623 -99 228 -195 444 -215 480 -201 371 -589 571 -1023 529z"/>
</g>
</svg>
